<svg xmlns="http://www.w3.org/2000/svg" x="0px" y="0px" viewBox="-850.5 850.5 42.281 25.871" enable-background="new -850.5 850.5 42.281 25.871" xml:space="preserve">
	<path d="M-822.111,875.909L-822.111,875.909l-1.944-1.933c-3.1-2.566-6.004-5.359-8.69-8.355
		c-2.228-2.692-3.266-5.084-3.266-7.524c-0.019-2.023,0.776-3.969,2.206-5.4c1.448-1.425,3.405-2.215,5.437-2.194
		c2.407,0.016,4.689,1.073,6.258,2.899c1.566-1.824,3.845-2.882,6.25-2.899c2.031-0.021,3.987,0.768,5.437,2.191
		c1.43,1.432,2.225,3.377,2.206,5.4c0,2.44-1.038,4.832-3.266,7.525c-2.685,2.996-5.588,5.789-8.687,8.354L-822.111,875.909
		L-822.111,875.909z M-826.768,853.393c-3.147-0.041-5.733,2.477-5.774,5.624c-0.001,0.038-0.001,0.076-0.001,0.114
		c0,3.871,3.262,6.927,9.029,11.999l1.47,1.461l1.47-1.461c5.767-5.069,9.029-8.125,9.029-11.999
		c0.021-3.148-2.514-5.718-5.661-5.738c-0.038-0.001-0.075,0-0.112,0c-1.818,0.013-3.541,0.812-4.726,2.191
		C-823.228,854.205-824.95,853.406-826.768,853.393z"/>
	<path d="M-836.438,876.373l-1.97-1.972c-7.311-6.465-12.092-10.824-12.092-16.167
		c-0.061-4.21,3.304-7.672,7.514-7.732c0.073-0.001,0.146-0.001,0.22,0c2.436,0.026,4.742,1.103,6.327,2.953
		c1.585-1.852,3.892-2.928,6.328-2.953c4.21-0.061,7.672,3.303,7.732,7.513c0.001,0.073,0.001,0.146,0,0.22
		c0,5.343-4.781,9.7-12.092,16.17L-836.438,876.373z"/>
</svg>
