<svg xmlns="http://www.w3.org/2000/svg" x="0px" y="0px" viewBox="-850.498 1152.434 1700.787 1096.922" xml:space="preserve">
	<path fill="#FFFFFF" d="M-510.838,2249.356l-81.39-294.975l-81.389,294.975h-30.503l-146.138-541.857h-0.24l0.12-6.603l-0.12-6.604h0.228
		l146.138-541.858h30.503l81.403,294.976l81.389-294.976h30.517l146.138,541.858h0.228l-0.121,6.604l0.121,6.603h-0.228
		l-146.125,541.857H-510.838z M-577.351,1883.873l82.179,298.17l123.642-448.104h-248.032L-577.351,1883.873z M-689.257,2180.879
		l82.218-294.668l-49.924-178.712H-820.53L-689.257,2180.879z M-363.938,1694.293l-131.3-474.65l-82.112,295.27l49.846,179.381
		H-363.938z"/>
	<path fill="#FFFFFF" d="M-83.158,1984.282L-83.158,1984.282z M236.987,1707.499v13.22H130.334v277.532h-13.34v-277.532H10.342v-13.22H236.987z
		M324.526,1877.737c-0.12,17.216,4.652,34.124,13.754,48.868c8.996,14.784,21.749,27.068,37.039,35.716
		c15.278,8.741,32.681,13.313,50.405,13.206c17.483,0.254,34.808-3.461,50.567-10.814c14.448-6.684,26.745-16.521,35.581-29.5
		c8.636-12.857,13.273-16.267,13.354-42.691h14.81c0.146,26.438-5.067,34.726-15.037,49.67
		c-10.199,15.238-24.395,27.268-41.13,35.369c-18.045,8.82-38.002,13.152-58.186,12.871c-20.357,0.107-40.381-5.213-57.918-15.291
		c-17.563-9.878-28.55-24.074-38.79-41.115c-10.358-17.017-11.963-36.491-11.963-56.287v-65.684c0-19.77,1.524-39.219,11.763-56.288
		c10.079-17.001,22.71-31.157,40.153-41.035c17.471-10.091,36.519-15.345,56.835-15.224c20.051-0.24,39.433,4.223,57.329,13.02
		c16.764,8.125,30.783,21.199,41.104,36.449c10.078,14.904,15.145,37.828,14.983,51.034h-14.797
		c-0.08-13.206-4.784-31.226-13.566-44.043c-8.916-12.925-21.199-23.672-35.61-30.423c-15.705-7.365-32.96-11.281-50.405-11.014
		c-17.644-0.106-34.993,4.357-50.151,13.14c-15.157,8.595-27.762,20.838-36.611,35.596c-8.982,14.77-13.688,31.639-13.554,48.814
		L324.526,1877.737z M623.632,1998.251v-290.752h13.339v132.169h199.98v-132.169h13.338v290.752h-13.338v-145.376h-199.98v145.376
		H623.632z"/>
	<path fill="#07E0DB" d="M-82.997,1998.251h-170.572l77.232-290.752h16.121L-82.997,1998.251z"/>
</svg>
